<?xml version="1.0" encoding="UTF-8"?>
<svg xmlns="http://www.w3.org/2000/svg" xmlns:xlink="http://www.w3.org/1999/xlink" width="190px" height="190px" viewBox="0 0 190 190" version="1.1">
<g id="surface1">
<path style=" stroke:none;fill-rule:nonzero;fill:rgb(0%,0%,0%);fill-opacity:1;" d="M 73.695312 166.65625 L 90.484375 136.628906 L 51.167969 147.507812 L 34.378906 177.535156 Z M 73.695312 166.65625 "/>
<path style=" stroke:none;fill-rule:nonzero;fill:rgb(0%,0%,0%);fill-opacity:1;" d="M 110.675781 33.492188 L 127.464844 3.460938 L 138 44.0625 L 121.210938 74.089844 Z M 110.675781 33.492188 "/>
<path style=" stroke:none;fill-rule:nonzero;fill:rgb(0%,0%,0%);fill-opacity:1;" d="M 45.714844 147.46875 L 74.792969 130.132812 L 35.476562 119.253906 L 6.394531 136.589844 Z M 45.714844 147.46875 "/>
<path style=" stroke:none;fill-rule:nonzero;fill:rgb(0%,0%,0%);fill-opacity:1;" d="M 136.90625 54.324219 L 165.988281 36.988281 L 155.453125 77.585938 L 126.371094 94.921875 Z M 136.90625 54.324219 "/>
<path style=" stroke:none;fill-rule:nonzero;fill:rgb(0%,0%,0%);fill-opacity:1;" d="M 28.847656 116.0625 L 62.5 116.0625 L 33.65625 85.332031 L 0 85.332031 Z M 28.847656 116.0625 "/>
<path style=" stroke:none;fill-rule:nonzero;fill:rgb(0%,0%,0%);fill-opacity:1;" d="M 153.117188 85.335938 L 186.769531 85.335938 L 157.925781 116.066406 L 124.269531 116.066406 Z M 153.117188 85.335938 "/>
<path style=" stroke:none;fill-rule:nonzero;fill:rgb(0%,0%,0%);fill-opacity:1;" d="M 31.320312 77.589844 L 60.398438 94.929688 L 49.863281 54.328125 L 20.785156 36.992188 Z M 31.320312 77.589844 "/>
<path style=" stroke:none;fill-rule:nonzero;fill:rgb(0%,0%,0%);fill-opacity:1;" d="M 151.296875 119.265625 L 180.378906 136.605469 L 141.0625 147.480469 L 111.980469 130.144531 Z M 151.296875 119.265625 "/>
<path style=" stroke:none;fill-rule:nonzero;fill:rgb(0%,0%,0%);fill-opacity:1;" d="M 48.769531 44.058594 L 65.558594 74.089844 L 76.09375 33.488281 L 59.304688 3.460938 Z M 48.769531 44.058594 "/>
<path style=" stroke:none;fill-rule:nonzero;fill:rgb(0%,0%,0%);fill-opacity:1;" d="M 135.605469 147.507812 L 152.394531 177.535156 L 113.074219 166.65625 L 96.285156 136.628906 Z M 135.605469 147.507812 "/>
</g>
</svg>
